<svg xmlns="http://www.w3.org/2000/svg" viewBox="0 0 48 48" width="48" height="48">
  <circle cx="24" cy="24" r="22" fill="#0068FF"/>
  <path d="M24 8C15.2 8 8 14.8 8 23c0 4.4 2 8.4 5.2 11.2l-1.6 5.6 6-1.6C19.6 39.6 21.8 40 24 40c8.8 0 16-6.8 16-15S32.8 8 24 8z" fill="white"/>
  <path d="M30 21h-3v-3c0-.6-.4-1-1-1s-1 .4-1 1v3h-2v-3c0-.6-.4-1-1-1s-1 .4-1 1v3h-3c-.6 0-1 .4-1 1s.4 1 1 1h3v2h-3c-.6 0-1 .4-1 1s.4 1 1 1h3v3c0 .6.4 1 1 1s1-.4 1-1v-3h2v3c0 .6.4 1 1 1s1-.4 1-1v-3h3c.6 0 1-.4 1-1s-.4-1-1-1h-3v-2h3c.6 0 1-.4 1-1s-.4-1-1-1zm-7 2v2h-2v-2h2z" fill="#0068FF"/>
</svg>
