<svg width="1200" height="820" viewBox="0 0 1200 820" fill="none" xmlns="http://www.w3.org/2000/svg">
<rect width="1200" height="820" rx="48" fill="url(#paint0_linear_401_2)"/>
<rect x="62" y="82" width="484" height="224" rx="24" fill="#F3F8FF" stroke="#C5DCF8" stroke-width="2"/>
<rect x="92" y="120" width="192" height="22" rx="11" fill="#1F4FA6"/>
<rect x="92" y="160" width="420" height="16" rx="8" fill="#ADC6EA"/>
<rect x="92" y="188" width="360" height="16" rx="8" fill="#C7DBF6"/>
<rect x="92" y="216" width="284" height="16" rx="8" fill="#D9E8FB"/>
<rect x="92" y="250" width="206" height="34" rx="17" fill="#D7263D"/>
<rect x="573" y="370" width="454" height="194" rx="28" fill="#17448A"/>
<rect x="622" y="314" width="420" height="164" rx="24" fill="#2C69C5"/>
<rect x="792" y="424" width="290" height="140" rx="18" fill="#0C2C5E"/>
<rect x="982" y="424" width="80" height="140" rx="12" fill="#113873"/>
<circle cx="718" cy="594" r="56" fill="#0E1B31"/>
<circle cx="928" cy="594" r="56" fill="#0E1B31"/>
<circle cx="718" cy="594" r="24" fill="#E6EEF9"/>
<circle cx="928" cy="594" r="24" fill="#E6EEF9"/>
<rect x="845" y="456" width="148" height="58" rx="9" fill="#9FD4FF"/>
<rect x="584" y="480" width="102" height="16" rx="8" fill="#7BA4E5"/>
<rect x="584" y="508" width="168" height="16" rx="8" fill="#5F8FD8"/>
<rect x="952" y="642" width="170" height="64" rx="18" fill="#FFFFFF"/>
<path d="M974 676H1100" stroke="#1D4EA1" stroke-width="6" stroke-linecap="round"/>
<path d="M1010 658L990 676L1010 694" stroke="#1D4EA1" stroke-width="6" stroke-linecap="round" stroke-linejoin="round"/>
<path d="M1062 658L1082 676L1062 694" stroke="#1D4EA1" stroke-width="6" stroke-linecap="round" stroke-linejoin="round"/>
<text x="80" y="360" fill="#153A73" font-family="Segoe UI, Arial" font-size="54" font-weight="700">Ho tro thu tuc phu hieu xe</text>
<text x="80" y="410" fill="#446797" font-family="Segoe UI, Arial" font-size="30" font-weight="500">Nhanh - Dung ho so - Co nguoi theo sat</text>
<defs>
<linearGradient id="paint0_linear_401_2" x1="89" y1="38" x2="1103" y2="773" gradientUnits="userSpaceOnUse">
<stop stop-color="#DDEBFF"/>
<stop offset="1" stop-color="#EEF4FF"/>
</linearGradient>
</defs>
</svg>
