<svg width="980" height="620" viewBox="0 0 980 620" fill="none" xmlns="http://www.w3.org/2000/svg">
<rect width="980" height="620" rx="30" fill="url(#paint0_linear_711_10)"/>
<rect x="46" y="58" width="888" height="504" rx="24" fill="white" stroke="#F0CCD3" stroke-width="2"/>
<text x="92" y="132" fill="#9A1D30" font-family="Segoe UI, Arial" font-size="46" font-weight="700">Canh bao rui ro khi xe chay khong phu hieu</text>
<rect x="92" y="182" width="798" height="86" rx="18" fill="#FFF3F5" stroke="#F2CED5"/>
<circle cx="136" cy="225" r="24" fill="#D7263D"/>
<path d="M136 212V228" stroke="white" stroke-width="5" stroke-linecap="round"/>
<circle cx="136" cy="237" r="3.5" fill="white"/>
<text x="172" y="234" fill="#7B2432" font-family="Segoe UI, Arial" font-size="27" font-weight="600">Nguy co phat tien cao va giu xe khi bi kiem tra</text>
<rect x="92" y="288" width="798" height="86" rx="18" fill="#FFF3F5" stroke="#F2CED5"/>
<circle cx="136" cy="331" r="24" fill="#D7263D"/>
<path d="M124 331H148" stroke="white" stroke-width="5" stroke-linecap="round"/>
<text x="172" y="340" fill="#7B2432" font-family="Segoe UI, Arial" font-size="27" font-weight="600">Ho so bi tra lai nhieu lan lam tre lich khai thac xe</text>
<rect x="92" y="394" width="798" height="86" rx="18" fill="#FFF3F5" stroke="#F2CED5"/>
<circle cx="136" cy="437" r="24" fill="#D7263D"/>
<path d="M129 430L143 444" stroke="white" stroke-width="5" stroke-linecap="round"/>
<path d="M143 430L129 444" stroke="white" stroke-width="5" stroke-linecap="round"/>
<text x="172" y="446" fill="#7B2432" font-family="Segoe UI, Arial" font-size="27" font-weight="600">Mat them chi phi van hanh do dung xe, doi thu tuc</text>
<text x="92" y="538" fill="#A73A4A" font-family="Segoe UI, Arial" font-size="23" font-weight="500">Tam diem chuyen doi: nhan manh muc phat + mat thoi gian + ro checklist giay to.</text>
<defs>
<linearGradient id="paint0_linear_711_10" x1="64" y1="28" x2="916" y2="591" gradientUnits="userSpaceOnUse">
<stop stop-color="#FFECEF"/>
<stop offset="1" stop-color="#FFF7F8"/>
</linearGradient>
</defs>
</svg>
